<svg xmlns="http://www.w3.org/2000/svg" width="980" height="560">
<rect width="100%" height="100%" fill="#ffffff"/>
<text x="490.0" y="32" text-anchor="middle" font-size="22" font-family="Arial, sans-serif" font-weight="bold">UniSyn Training Loss</text>
<line x1="90" y1="490" x2="800" y2="490" stroke="#333333" stroke-width="2"/>
<line x1="90" y1="70" x2="90" y2="490" stroke="#333333" stroke-width="2"/>
<line x1="90" y1="490.0" x2="800" y2="490.0" stroke="#eeeeee" stroke-width="1"/>
<text x="80" y="495.0" text-anchor="end" font-size="12" font-family="Arial">37.83</text>
<line x1="90" y1="406.0" x2="800" y2="406.0" stroke="#eeeeee" stroke-width="1"/>
<text x="80" y="411.0" text-anchor="end" font-size="12" font-family="Arial">51.93</text>
<line x1="90" y1="322.0" x2="800" y2="322.0" stroke="#eeeeee" stroke-width="1"/>
<text x="80" y="327.0" text-anchor="end" font-size="12" font-family="Arial">66.03</text>
<line x1="90" y1="238.0" x2="800" y2="238.0" stroke="#eeeeee" stroke-width="1"/>
<text x="80" y="243.0" text-anchor="end" font-size="12" font-family="Arial">80.14</text>
<line x1="90" y1="154.0" x2="800" y2="154.0" stroke="#eeeeee" stroke-width="1"/>
<text x="80" y="159.0" text-anchor="end" font-size="12" font-family="Arial">94.24</text>
<line x1="90" y1="70.0" x2="800" y2="70.0" stroke="#eeeeee" stroke-width="1"/>
<text x="80" y="75.0" text-anchor="end" font-size="12" font-family="Arial">108.34</text>
<text x="90.0" y="510" text-anchor="middle" font-size="12" font-family="Arial">1</text>
<text x="232.0" y="510" text-anchor="middle" font-size="12" font-family="Arial">40</text>
<text x="374.0" y="510" text-anchor="middle" font-size="12" font-family="Arial">80</text>
<text x="516.0" y="510" text-anchor="middle" font-size="12" font-family="Arial">120</text>
<text x="658.0" y="510" text-anchor="middle" font-size="12" font-family="Arial">160</text>
<text x="800.0" y="510" text-anchor="middle" font-size="12" font-family="Arial">200</text>
<text x="24" y="280.0" transform="rotate(-90 24 280.0)" text-anchor="middle" font-size="16" font-family="Arial">Loss</text>
<text x="445.0" y="535" text-anchor="middle" font-size="16" font-family="Arial">Epoch</text>
<polyline points="90.0,146.3 93.6,211.6 97.1,264.4 100.7,289.6 104.3,324.3 107.8,337.4 111.4,315.1 115.0,366.2 118.5,332.4 122.1,352.2 125.7,326.5 129.2,349.4 132.8,346.7 136.4,371.6 139.9,359.5 143.5,366.2 147.1,360.2 150.7,379.2 154.2,383.8 157.8,342.1 161.4,372.6 164.9,361.7 168.5,366.0 172.1,368.2 175.6,365.3 179.2,361.4 182.8,385.7 186.3,360.1 189.9,375.2 193.5,367.9 197.0,400.1 200.6,398.7 204.2,381.8 207.7,396.2 211.3,370.8 214.9,406.0 218.4,390.0 222.0,421.7 225.6,393.0 229.1,403.8 232.7,389.0 236.3,419.3 239.8,388.7 243.4,401.3 247.0,399.0 250.6,395.1 254.1,382.6 257.7,388.3 261.3,383.1 264.8,399.8 268.4,426.7 272.0,378.9 275.5,393.4 279.1,415.1 282.7,407.8 286.2,409.2 289.8,407.3 293.4,394.9 296.9,417.5 300.5,410.1 304.1,404.3 307.6,376.2 311.2,398.9 314.8,428.3 318.3,414.6 321.9,413.3 325.5,419.6 329.0,408.2 332.6,426.2 336.2,412.2 339.7,429.0 343.3,443.0 346.9,413.8 350.5,430.0 354.0,409.9 357.6,412.3 361.2,449.3 364.7,405.5 368.3,458.2 371.9,431.7 375.4,427.6 379.0,421.2 382.6,426.9 386.1,421.1 389.7,422.4 393.3,413.1 396.8,470.3 400.4,460.4 404.0,404.2 407.5,443.2 411.1,421.9 414.7,429.9 418.2,423.8 421.8,428.7 425.4,449.8 428.9,422.2 432.5,472.6 436.1,426.6 439.6,435.2 443.2,429.3 446.8,425.7 450.4,457.8 453.9,469.1 457.5,451.7 461.1,450.0 464.6,473.6 468.2,448.4 471.8,438.7 475.3,470.5 478.9,434.3 482.5,435.8 486.0,415.2 489.6,447.0 493.2,438.6 496.7,467.2 500.3,433.6 503.9,438.4 507.4,430.2 511.0,447.9 514.6,447.9 518.1,473.5 521.7,466.5 525.3,459.8 528.8,450.3 532.4,460.9 536.0,473.7 539.5,448.8 543.1,449.6 546.7,452.2 550.3,425.4 553.8,453.6 557.4,411.9 561.0,457.1 564.5,442.9 568.1,447.3 571.7,469.8 575.2,452.5 578.8,476.1 582.4,435.5 585.9,475.5 589.5,465.3 593.1,459.5 596.6,484.8 600.2,474.5 603.8,458.0 607.3,470.8 610.9,417.4 614.5,476.7 618.0,445.9 621.6,467.2 625.2,454.0 628.7,464.2 632.3,458.2 635.9,482.7 639.4,455.1 643.0,435.2 646.6,459.0 650.2,490.0 653.7,440.1 657.3,467.8 660.9,440.5 664.4,452.8 668.0,469.5 671.6,463.1 675.1,473.2 678.7,450.9 682.3,442.4 685.8,453.0 689.4,470.3 693.0,488.7 696.5,458.0 700.1,468.5 703.7,484.6 707.2,462.3 710.8,463.6 714.4,453.3 717.9,465.1 721.5,459.3 725.1,470.1 728.6,450.2 732.2,451.9 735.8,453.1 739.3,461.4 742.9,453.2 746.5,457.3 750.1,467.1 753.6,483.4 757.2,485.3 760.8,452.4 764.3,453.9 767.9,445.3 771.5,461.0 775.0,425.8 778.6,455.6 782.2,440.8 785.7,457.3 789.3,472.9 792.9,465.1 796.4,451.3 800.0,455.3" fill="none" stroke="#4C78A8" stroke-width="2.5" opacity="0.85"/>
<circle cx="90.0" cy="146.3" r="3" fill="#4C78A8"/>
<circle cx="93.6" cy="211.6" r="3" fill="#4C78A8"/>
<circle cx="97.1" cy="264.4" r="3" fill="#4C78A8"/>
<circle cx="100.7" cy="289.6" r="3" fill="#4C78A8"/>
<circle cx="104.3" cy="324.3" r="3" fill="#4C78A8"/>
<circle cx="107.8" cy="337.4" r="3" fill="#4C78A8"/>
<circle cx="111.4" cy="315.1" r="3" fill="#4C78A8"/>
<circle cx="115.0" cy="366.2" r="3" fill="#4C78A8"/>
<circle cx="118.5" cy="332.4" r="3" fill="#4C78A8"/>
<circle cx="122.1" cy="352.2" r="3" fill="#4C78A8"/>
<circle cx="125.7" cy="326.5" r="3" fill="#4C78A8"/>
<circle cx="129.2" cy="349.4" r="3" fill="#4C78A8"/>
<circle cx="132.8" cy="346.7" r="3" fill="#4C78A8"/>
<circle cx="136.4" cy="371.6" r="3" fill="#4C78A8"/>
<circle cx="139.9" cy="359.5" r="3" fill="#4C78A8"/>
<circle cx="143.5" cy="366.2" r="3" fill="#4C78A8"/>
<circle cx="147.1" cy="360.2" r="3" fill="#4C78A8"/>
<circle cx="150.7" cy="379.2" r="3" fill="#4C78A8"/>
<circle cx="154.2" cy="383.8" r="3" fill="#4C78A8"/>
<circle cx="157.8" cy="342.1" r="3" fill="#4C78A8"/>
<circle cx="161.4" cy="372.6" r="3" fill="#4C78A8"/>
<circle cx="164.9" cy="361.7" r="3" fill="#4C78A8"/>
<circle cx="168.5" cy="366.0" r="3" fill="#4C78A8"/>
<circle cx="172.1" cy="368.2" r="3" fill="#4C78A8"/>
<circle cx="175.6" cy="365.3" r="3" fill="#4C78A8"/>
<circle cx="179.2" cy="361.4" r="3" fill="#4C78A8"/>
<circle cx="182.8" cy="385.7" r="3" fill="#4C78A8"/>
<circle cx="186.3" cy="360.1" r="3" fill="#4C78A8"/>
<circle cx="189.9" cy="375.2" r="3" fill="#4C78A8"/>
<circle cx="193.5" cy="367.9" r="3" fill="#4C78A8"/>
<circle cx="197.0" cy="400.1" r="3" fill="#4C78A8"/>
<circle cx="200.6" cy="398.7" r="3" fill="#4C78A8"/>
<circle cx="204.2" cy="381.8" r="3" fill="#4C78A8"/>
<circle cx="207.7" cy="396.2" r="3" fill="#4C78A8"/>
<circle cx="211.3" cy="370.8" r="3" fill="#4C78A8"/>
<circle cx="214.9" cy="406.0" r="3" fill="#4C78A8"/>
<circle cx="218.4" cy="390.0" r="3" fill="#4C78A8"/>
<circle cx="222.0" cy="421.7" r="3" fill="#4C78A8"/>
<circle cx="225.6" cy="393.0" r="3" fill="#4C78A8"/>
<circle cx="229.1" cy="403.8" r="3" fill="#4C78A8"/>
<circle cx="232.7" cy="389.0" r="3" fill="#4C78A8"/>
<circle cx="236.3" cy="419.3" r="3" fill="#4C78A8"/>
<circle cx="239.8" cy="388.7" r="3" fill="#4C78A8"/>
<circle cx="243.4" cy="401.3" r="3" fill="#4C78A8"/>
<circle cx="247.0" cy="399.0" r="3" fill="#4C78A8"/>
<circle cx="250.6" cy="395.1" r="3" fill="#4C78A8"/>
<circle cx="254.1" cy="382.6" r="3" fill="#4C78A8"/>
<circle cx="257.7" cy="388.3" r="3" fill="#4C78A8"/>
<circle cx="261.3" cy="383.1" r="3" fill="#4C78A8"/>
<circle cx="264.8" cy="399.8" r="3" fill="#4C78A8"/>
<circle cx="268.4" cy="426.7" r="3" fill="#4C78A8"/>
<circle cx="272.0" cy="378.9" r="3" fill="#4C78A8"/>
<circle cx="275.5" cy="393.4" r="3" fill="#4C78A8"/>
<circle cx="279.1" cy="415.1" r="3" fill="#4C78A8"/>
<circle cx="282.7" cy="407.8" r="3" fill="#4C78A8"/>
<circle cx="286.2" cy="409.2" r="3" fill="#4C78A8"/>
<circle cx="289.8" cy="407.3" r="3" fill="#4C78A8"/>
<circle cx="293.4" cy="394.9" r="3" fill="#4C78A8"/>
<circle cx="296.9" cy="417.5" r="3" fill="#4C78A8"/>
<circle cx="300.5" cy="410.1" r="3" fill="#4C78A8"/>
<circle cx="304.1" cy="404.3" r="3" fill="#4C78A8"/>
<circle cx="307.6" cy="376.2" r="3" fill="#4C78A8"/>
<circle cx="311.2" cy="398.9" r="3" fill="#4C78A8"/>
<circle cx="314.8" cy="428.3" r="3" fill="#4C78A8"/>
<circle cx="318.3" cy="414.6" r="3" fill="#4C78A8"/>
<circle cx="321.9" cy="413.3" r="3" fill="#4C78A8"/>
<circle cx="325.5" cy="419.6" r="3" fill="#4C78A8"/>
<circle cx="329.0" cy="408.2" r="3" fill="#4C78A8"/>
<circle cx="332.6" cy="426.2" r="3" fill="#4C78A8"/>
<circle cx="336.2" cy="412.2" r="3" fill="#4C78A8"/>
<circle cx="339.7" cy="429.0" r="3" fill="#4C78A8"/>
<circle cx="343.3" cy="443.0" r="3" fill="#4C78A8"/>
<circle cx="346.9" cy="413.8" r="3" fill="#4C78A8"/>
<circle cx="350.5" cy="430.0" r="3" fill="#4C78A8"/>
<circle cx="354.0" cy="409.9" r="3" fill="#4C78A8"/>
<circle cx="357.6" cy="412.3" r="3" fill="#4C78A8"/>
<circle cx="361.2" cy="449.3" r="3" fill="#4C78A8"/>
<circle cx="364.7" cy="405.5" r="3" fill="#4C78A8"/>
<circle cx="368.3" cy="458.2" r="3" fill="#4C78A8"/>
<circle cx="371.9" cy="431.7" r="3" fill="#4C78A8"/>
<circle cx="375.4" cy="427.6" r="3" fill="#4C78A8"/>
<circle cx="379.0" cy="421.2" r="3" fill="#4C78A8"/>
<circle cx="382.6" cy="426.9" r="3" fill="#4C78A8"/>
<circle cx="386.1" cy="421.1" r="3" fill="#4C78A8"/>
<circle cx="389.7" cy="422.4" r="3" fill="#4C78A8"/>
<circle cx="393.3" cy="413.1" r="3" fill="#4C78A8"/>
<circle cx="396.8" cy="470.3" r="3" fill="#4C78A8"/>
<circle cx="400.4" cy="460.4" r="3" fill="#4C78A8"/>
<circle cx="404.0" cy="404.2" r="3" fill="#4C78A8"/>
<circle cx="407.5" cy="443.2" r="3" fill="#4C78A8"/>
<circle cx="411.1" cy="421.9" r="3" fill="#4C78A8"/>
<circle cx="414.7" cy="429.9" r="3" fill="#4C78A8"/>
<circle cx="418.2" cy="423.8" r="3" fill="#4C78A8"/>
<circle cx="421.8" cy="428.7" r="3" fill="#4C78A8"/>
<circle cx="425.4" cy="449.8" r="3" fill="#4C78A8"/>
<circle cx="428.9" cy="422.2" r="3" fill="#4C78A8"/>
<circle cx="432.5" cy="472.6" r="3" fill="#4C78A8"/>
<circle cx="436.1" cy="426.6" r="3" fill="#4C78A8"/>
<circle cx="439.6" cy="435.2" r="3" fill="#4C78A8"/>
<circle cx="443.2" cy="429.3" r="3" fill="#4C78A8"/>
<circle cx="446.8" cy="425.7" r="3" fill="#4C78A8"/>
<circle cx="450.4" cy="457.8" r="3" fill="#4C78A8"/>
<circle cx="453.9" cy="469.1" r="3" fill="#4C78A8"/>
<circle cx="457.5" cy="451.7" r="3" fill="#4C78A8"/>
<circle cx="461.1" cy="450.0" r="3" fill="#4C78A8"/>
<circle cx="464.6" cy="473.6" r="3" fill="#4C78A8"/>
<circle cx="468.2" cy="448.4" r="3" fill="#4C78A8"/>
<circle cx="471.8" cy="438.7" r="3" fill="#4C78A8"/>
<circle cx="475.3" cy="470.5" r="3" fill="#4C78A8"/>
<circle cx="478.9" cy="434.3" r="3" fill="#4C78A8"/>
<circle cx="482.5" cy="435.8" r="3" fill="#4C78A8"/>
<circle cx="486.0" cy="415.2" r="3" fill="#4C78A8"/>
<circle cx="489.6" cy="447.0" r="3" fill="#4C78A8"/>
<circle cx="493.2" cy="438.6" r="3" fill="#4C78A8"/>
<circle cx="496.7" cy="467.2" r="3" fill="#4C78A8"/>
<circle cx="500.3" cy="433.6" r="3" fill="#4C78A8"/>
<circle cx="503.9" cy="438.4" r="3" fill="#4C78A8"/>
<circle cx="507.4" cy="430.2" r="3" fill="#4C78A8"/>
<circle cx="511.0" cy="447.9" r="3" fill="#4C78A8"/>
<circle cx="514.6" cy="447.9" r="3" fill="#4C78A8"/>
<circle cx="518.1" cy="473.5" r="3" fill="#4C78A8"/>
<circle cx="521.7" cy="466.5" r="3" fill="#4C78A8"/>
<circle cx="525.3" cy="459.8" r="3" fill="#4C78A8"/>
<circle cx="528.8" cy="450.3" r="3" fill="#4C78A8"/>
<circle cx="532.4" cy="460.9" r="3" fill="#4C78A8"/>
<circle cx="536.0" cy="473.7" r="3" fill="#4C78A8"/>
<circle cx="539.5" cy="448.8" r="3" fill="#4C78A8"/>
<circle cx="543.1" cy="449.6" r="3" fill="#4C78A8"/>
<circle cx="546.7" cy="452.2" r="3" fill="#4C78A8"/>
<circle cx="550.3" cy="425.4" r="3" fill="#4C78A8"/>
<circle cx="553.8" cy="453.6" r="3" fill="#4C78A8"/>
<circle cx="557.4" cy="411.9" r="3" fill="#4C78A8"/>
<circle cx="561.0" cy="457.1" r="3" fill="#4C78A8"/>
<circle cx="564.5" cy="442.9" r="3" fill="#4C78A8"/>
<circle cx="568.1" cy="447.3" r="3" fill="#4C78A8"/>
<circle cx="571.7" cy="469.8" r="3" fill="#4C78A8"/>
<circle cx="575.2" cy="452.5" r="3" fill="#4C78A8"/>
<circle cx="578.8" cy="476.1" r="3" fill="#4C78A8"/>
<circle cx="582.4" cy="435.5" r="3" fill="#4C78A8"/>
<circle cx="585.9" cy="475.5" r="3" fill="#4C78A8"/>
<circle cx="589.5" cy="465.3" r="3" fill="#4C78A8"/>
<circle cx="593.1" cy="459.5" r="3" fill="#4C78A8"/>
<circle cx="596.6" cy="484.8" r="3" fill="#4C78A8"/>
<circle cx="600.2" cy="474.5" r="3" fill="#4C78A8"/>
<circle cx="603.8" cy="458.0" r="3" fill="#4C78A8"/>
<circle cx="607.3" cy="470.8" r="3" fill="#4C78A8"/>
<circle cx="610.9" cy="417.4" r="3" fill="#4C78A8"/>
<circle cx="614.5" cy="476.7" r="3" fill="#4C78A8"/>
<circle cx="618.0" cy="445.9" r="3" fill="#4C78A8"/>
<circle cx="621.6" cy="467.2" r="3" fill="#4C78A8"/>
<circle cx="625.2" cy="454.0" r="3" fill="#4C78A8"/>
<circle cx="628.7" cy="464.2" r="3" fill="#4C78A8"/>
<circle cx="632.3" cy="458.2" r="3" fill="#4C78A8"/>
<circle cx="635.9" cy="482.7" r="3" fill="#4C78A8"/>
<circle cx="639.4" cy="455.1" r="3" fill="#4C78A8"/>
<circle cx="643.0" cy="435.2" r="3" fill="#4C78A8"/>
<circle cx="646.6" cy="459.0" r="3" fill="#4C78A8"/>
<circle cx="650.2" cy="490.0" r="3" fill="#4C78A8"/>
<circle cx="653.7" cy="440.1" r="3" fill="#4C78A8"/>
<circle cx="657.3" cy="467.8" r="3" fill="#4C78A8"/>
<circle cx="660.9" cy="440.5" r="3" fill="#4C78A8"/>
<circle cx="664.4" cy="452.8" r="3" fill="#4C78A8"/>
<circle cx="668.0" cy="469.5" r="3" fill="#4C78A8"/>
<circle cx="671.6" cy="463.1" r="3" fill="#4C78A8"/>
<circle cx="675.1" cy="473.2" r="3" fill="#4C78A8"/>
<circle cx="678.7" cy="450.9" r="3" fill="#4C78A8"/>
<circle cx="682.3" cy="442.4" r="3" fill="#4C78A8"/>
<circle cx="685.8" cy="453.0" r="3" fill="#4C78A8"/>
<circle cx="689.4" cy="470.3" r="3" fill="#4C78A8"/>
<circle cx="693.0" cy="488.7" r="3" fill="#4C78A8"/>
<circle cx="696.5" cy="458.0" r="3" fill="#4C78A8"/>
<circle cx="700.1" cy="468.5" r="3" fill="#4C78A8"/>
<circle cx="703.7" cy="484.6" r="3" fill="#4C78A8"/>
<circle cx="707.2" cy="462.3" r="3" fill="#4C78A8"/>
<circle cx="710.8" cy="463.6" r="3" fill="#4C78A8"/>
<circle cx="714.4" cy="453.3" r="3" fill="#4C78A8"/>
<circle cx="717.9" cy="465.1" r="3" fill="#4C78A8"/>
<circle cx="721.5" cy="459.3" r="3" fill="#4C78A8"/>
<circle cx="725.1" cy="470.1" r="3" fill="#4C78A8"/>
<circle cx="728.6" cy="450.2" r="3" fill="#4C78A8"/>
<circle cx="732.2" cy="451.9" r="3" fill="#4C78A8"/>
<circle cx="735.8" cy="453.1" r="3" fill="#4C78A8"/>
<circle cx="739.3" cy="461.4" r="3" fill="#4C78A8"/>
<circle cx="742.9" cy="453.2" r="3" fill="#4C78A8"/>
<circle cx="746.5" cy="457.3" r="3" fill="#4C78A8"/>
<circle cx="750.1" cy="467.1" r="3" fill="#4C78A8"/>
<circle cx="753.6" cy="483.4" r="3" fill="#4C78A8"/>
<circle cx="757.2" cy="485.3" r="3" fill="#4C78A8"/>
<circle cx="760.8" cy="452.4" r="3" fill="#4C78A8"/>
<circle cx="764.3" cy="453.9" r="3" fill="#4C78A8"/>
<circle cx="767.9" cy="445.3" r="3" fill="#4C78A8"/>
<circle cx="771.5" cy="461.0" r="3" fill="#4C78A8"/>
<circle cx="775.0" cy="425.8" r="3" fill="#4C78A8"/>
<circle cx="778.6" cy="455.6" r="3" fill="#4C78A8"/>
<circle cx="782.2" cy="440.8" r="3" fill="#4C78A8"/>
<circle cx="785.7" cy="457.3" r="3" fill="#4C78A8"/>
<circle cx="789.3" cy="472.9" r="3" fill="#4C78A8"/>
<circle cx="792.9" cy="465.1" r="3" fill="#4C78A8"/>
<circle cx="796.4" cy="451.3" r="3" fill="#4C78A8"/>
<circle cx="800.0" cy="455.3" r="3" fill="#4C78A8"/>
<line x1="820" y1="85" x2="845" y2="85" stroke="#4C78A8" stroke-width="3"/>
<text x="855" y="90" font-size="14" font-family="Arial" fill="#333333">Base_Model_1</text>
<polyline points="90.0,123.1 93.6,239.8 97.1,251.0 100.7,312.9 104.3,338.6 107.8,293.1 111.4,303.1 115.0,337.4 118.5,361.5 122.1,341.1 125.7,361.0 129.2,348.4 132.8,357.4 136.4,396.7 139.9,352.9 143.5,379.2 147.1,370.5 150.7,399.5 154.2,373.4 157.8,374.5 161.4,360.1 164.9,397.3 168.5,367.6 172.1,403.6 175.6,371.3 179.2,380.8 182.8,403.1 186.3,380.8 189.9,369.1 193.5,395.6 197.0,375.9 200.6,413.2 204.2,393.7 207.7,371.0 211.3,408.0 214.9,411.5 218.4,381.3 222.0,395.7 225.6,397.6 229.1,397.6 232.7,432.3 236.3,388.6 239.8,405.0 243.4,383.7 247.0,403.7 250.6,376.7 254.1,407.5 257.7,385.8 261.3,404.1 264.8,403.0 268.4,400.3 272.0,411.6 275.5,435.0 279.1,398.1 282.7,417.2 286.2,396.6 289.8,388.2 293.4,386.0 296.9,403.5 300.5,421.6 304.1,412.7 307.6,413.1 311.2,421.5 314.8,385.6 318.3,409.2 321.9,422.3 325.5,420.3 329.0,381.2 332.6,426.0 336.2,426.4 339.7,395.3 343.3,431.6 346.9,419.9 350.5,438.6 354.0,433.4 357.6,406.9 361.2,427.0 364.7,429.5 368.3,437.7 371.9,436.9" fill="none" stroke="#F58518" stroke-width="2.5" opacity="0.85"/>
<circle cx="90.0" cy="123.1" r="3" fill="#F58518"/>
<circle cx="93.6" cy="239.8" r="3" fill="#F58518"/>
<circle cx="97.1" cy="251.0" r="3" fill="#F58518"/>
<circle cx="100.7" cy="312.9" r="3" fill="#F58518"/>
<circle cx="104.3" cy="338.6" r="3" fill="#F58518"/>
<circle cx="107.8" cy="293.1" r="3" fill="#F58518"/>
<circle cx="111.4" cy="303.1" r="3" fill="#F58518"/>
<circle cx="115.0" cy="337.4" r="3" fill="#F58518"/>
<circle cx="118.5" cy="361.5" r="3" fill="#F58518"/>
<circle cx="122.1" cy="341.1" r="3" fill="#F58518"/>
<circle cx="125.7" cy="361.0" r="3" fill="#F58518"/>
<circle cx="129.2" cy="348.4" r="3" fill="#F58518"/>
<circle cx="132.8" cy="357.4" r="3" fill="#F58518"/>
<circle cx="136.4" cy="396.7" r="3" fill="#F58518"/>
<circle cx="139.9" cy="352.9" r="3" fill="#F58518"/>
<circle cx="143.5" cy="379.2" r="3" fill="#F58518"/>
<circle cx="147.1" cy="370.5" r="3" fill="#F58518"/>
<circle cx="150.7" cy="399.5" r="3" fill="#F58518"/>
<circle cx="154.2" cy="373.4" r="3" fill="#F58518"/>
<circle cx="157.8" cy="374.5" r="3" fill="#F58518"/>
<circle cx="161.4" cy="360.1" r="3" fill="#F58518"/>
<circle cx="164.9" cy="397.3" r="3" fill="#F58518"/>
<circle cx="168.5" cy="367.6" r="3" fill="#F58518"/>
<circle cx="172.1" cy="403.6" r="3" fill="#F58518"/>
<circle cx="175.6" cy="371.3" r="3" fill="#F58518"/>
<circle cx="179.2" cy="380.8" r="3" fill="#F58518"/>
<circle cx="182.8" cy="403.1" r="3" fill="#F58518"/>
<circle cx="186.3" cy="380.8" r="3" fill="#F58518"/>
<circle cx="189.9" cy="369.1" r="3" fill="#F58518"/>
<circle cx="193.5" cy="395.6" r="3" fill="#F58518"/>
<circle cx="197.0" cy="375.9" r="3" fill="#F58518"/>
<circle cx="200.6" cy="413.2" r="3" fill="#F58518"/>
<circle cx="204.2" cy="393.7" r="3" fill="#F58518"/>
<circle cx="207.7" cy="371.0" r="3" fill="#F58518"/>
<circle cx="211.3" cy="408.0" r="3" fill="#F58518"/>
<circle cx="214.9" cy="411.5" r="3" fill="#F58518"/>
<circle cx="218.4" cy="381.3" r="3" fill="#F58518"/>
<circle cx="222.0" cy="395.7" r="3" fill="#F58518"/>
<circle cx="225.6" cy="397.6" r="3" fill="#F58518"/>
<circle cx="229.1" cy="397.6" r="3" fill="#F58518"/>
<circle cx="232.7" cy="432.3" r="3" fill="#F58518"/>
<circle cx="236.3" cy="388.6" r="3" fill="#F58518"/>
<circle cx="239.8" cy="405.0" r="3" fill="#F58518"/>
<circle cx="243.4" cy="383.7" r="3" fill="#F58518"/>
<circle cx="247.0" cy="403.7" r="3" fill="#F58518"/>
<circle cx="250.6" cy="376.7" r="3" fill="#F58518"/>
<circle cx="254.1" cy="407.5" r="3" fill="#F58518"/>
<circle cx="257.7" cy="385.8" r="3" fill="#F58518"/>
<circle cx="261.3" cy="404.1" r="3" fill="#F58518"/>
<circle cx="264.8" cy="403.0" r="3" fill="#F58518"/>
<circle cx="268.4" cy="400.3" r="3" fill="#F58518"/>
<circle cx="272.0" cy="411.6" r="3" fill="#F58518"/>
<circle cx="275.5" cy="435.0" r="3" fill="#F58518"/>
<circle cx="279.1" cy="398.1" r="3" fill="#F58518"/>
<circle cx="282.7" cy="417.2" r="3" fill="#F58518"/>
<circle cx="286.2" cy="396.6" r="3" fill="#F58518"/>
<circle cx="289.8" cy="388.2" r="3" fill="#F58518"/>
<circle cx="293.4" cy="386.0" r="3" fill="#F58518"/>
<circle cx="296.9" cy="403.5" r="3" fill="#F58518"/>
<circle cx="300.5" cy="421.6" r="3" fill="#F58518"/>
<circle cx="304.1" cy="412.7" r="3" fill="#F58518"/>
<circle cx="307.6" cy="413.1" r="3" fill="#F58518"/>
<circle cx="311.2" cy="421.5" r="3" fill="#F58518"/>
<circle cx="314.8" cy="385.6" r="3" fill="#F58518"/>
<circle cx="318.3" cy="409.2" r="3" fill="#F58518"/>
<circle cx="321.9" cy="422.3" r="3" fill="#F58518"/>
<circle cx="325.5" cy="420.3" r="3" fill="#F58518"/>
<circle cx="329.0" cy="381.2" r="3" fill="#F58518"/>
<circle cx="332.6" cy="426.0" r="3" fill="#F58518"/>
<circle cx="336.2" cy="426.4" r="3" fill="#F58518"/>
<circle cx="339.7" cy="395.3" r="3" fill="#F58518"/>
<circle cx="343.3" cy="431.6" r="3" fill="#F58518"/>
<circle cx="346.9" cy="419.9" r="3" fill="#F58518"/>
<circle cx="350.5" cy="438.6" r="3" fill="#F58518"/>
<circle cx="354.0" cy="433.4" r="3" fill="#F58518"/>
<circle cx="357.6" cy="406.9" r="3" fill="#F58518"/>
<circle cx="361.2" cy="427.0" r="3" fill="#F58518"/>
<circle cx="364.7" cy="429.5" r="3" fill="#F58518"/>
<circle cx="368.3" cy="437.7" r="3" fill="#F58518"/>
<circle cx="371.9" cy="436.9" r="3" fill="#F58518"/>
<line x1="820" y1="115" x2="845" y2="115" stroke="#F58518" stroke-width="3"/>
<text x="855" y="120" font-size="14" font-family="Arial" fill="#333333">Base_Model_2</text>
<polyline points="90.0,187.7 93.6,228.9 97.1,267.4 100.7,269.0 104.3,313.7 107.8,318.5 111.4,323.1 115.0,342.9 118.5,352.5 122.1,356.2 125.7,333.1 129.2,361.5 132.8,341.8 136.4,329.1 139.9,361.2 143.5,362.8 147.1,381.8 150.7,368.3 154.2,344.8 157.8,340.9 161.4,369.7 164.9,394.2 168.5,378.3 172.1,371.8 175.6,389.8 179.2,388.1 182.8,372.5 186.3,376.4 189.9,369.2 193.5,374.1 197.0,375.9 200.6,384.8 204.2,391.6 207.7,402.6 211.3,385.1 214.9,379.6 218.4,408.7 222.0,417.3 225.6,428.5 229.1,385.4 232.7,408.5 236.3,397.8 239.8,416.2 243.4,385.6 247.0,403.3 250.6,404.4 254.1,397.3 257.7,370.5 261.3,418.0 264.8,400.0 268.4,392.8 272.0,389.5 275.5,392.6 279.1,429.3 282.7,426.6 286.2,430.1 289.8,402.1 293.4,410.1 296.9,405.0 300.5,405.9 304.1,415.7 307.6,408.6 311.2,432.5 314.8,413.8 318.3,394.0 321.9,421.6 325.5,425.0 329.0,390.8 332.6,433.4 336.2,385.7 339.7,419.6 343.3,393.9 346.9,412.9 350.5,394.0 354.0,419.0 357.6,426.4 361.2,436.6 364.7,404.2 368.3,423.6 371.9,435.2" fill="none" stroke="#E45756" stroke-width="2.5" opacity="0.85"/>
<circle cx="90.0" cy="187.7" r="3" fill="#E45756"/>
<circle cx="93.6" cy="228.9" r="3" fill="#E45756"/>
<circle cx="97.1" cy="267.4" r="3" fill="#E45756"/>
<circle cx="100.7" cy="269.0" r="3" fill="#E45756"/>
<circle cx="104.3" cy="313.7" r="3" fill="#E45756"/>
<circle cx="107.8" cy="318.5" r="3" fill="#E45756"/>
<circle cx="111.4" cy="323.1" r="3" fill="#E45756"/>
<circle cx="115.0" cy="342.9" r="3" fill="#E45756"/>
<circle cx="118.5" cy="352.5" r="3" fill="#E45756"/>
<circle cx="122.1" cy="356.2" r="3" fill="#E45756"/>
<circle cx="125.7" cy="333.1" r="3" fill="#E45756"/>
<circle cx="129.2" cy="361.5" r="3" fill="#E45756"/>
<circle cx="132.8" cy="341.8" r="3" fill="#E45756"/>
<circle cx="136.4" cy="329.1" r="3" fill="#E45756"/>
<circle cx="139.9" cy="361.2" r="3" fill="#E45756"/>
<circle cx="143.5" cy="362.8" r="3" fill="#E45756"/>
<circle cx="147.1" cy="381.8" r="3" fill="#E45756"/>
<circle cx="150.7" cy="368.3" r="3" fill="#E45756"/>
<circle cx="154.2" cy="344.8" r="3" fill="#E45756"/>
<circle cx="157.8" cy="340.9" r="3" fill="#E45756"/>
<circle cx="161.4" cy="369.7" r="3" fill="#E45756"/>
<circle cx="164.9" cy="394.2" r="3" fill="#E45756"/>
<circle cx="168.5" cy="378.3" r="3" fill="#E45756"/>
<circle cx="172.1" cy="371.8" r="3" fill="#E45756"/>
<circle cx="175.6" cy="389.8" r="3" fill="#E45756"/>
<circle cx="179.2" cy="388.1" r="3" fill="#E45756"/>
<circle cx="182.8" cy="372.5" r="3" fill="#E45756"/>
<circle cx="186.3" cy="376.4" r="3" fill="#E45756"/>
<circle cx="189.9" cy="369.2" r="3" fill="#E45756"/>
<circle cx="193.5" cy="374.1" r="3" fill="#E45756"/>
<circle cx="197.0" cy="375.9" r="3" fill="#E45756"/>
<circle cx="200.6" cy="384.8" r="3" fill="#E45756"/>
<circle cx="204.2" cy="391.6" r="3" fill="#E45756"/>
<circle cx="207.7" cy="402.6" r="3" fill="#E45756"/>
<circle cx="211.3" cy="385.1" r="3" fill="#E45756"/>
<circle cx="214.9" cy="379.6" r="3" fill="#E45756"/>
<circle cx="218.4" cy="408.7" r="3" fill="#E45756"/>
<circle cx="222.0" cy="417.3" r="3" fill="#E45756"/>
<circle cx="225.6" cy="428.5" r="3" fill="#E45756"/>
<circle cx="229.1" cy="385.4" r="3" fill="#E45756"/>
<circle cx="232.7" cy="408.5" r="3" fill="#E45756"/>
<circle cx="236.3" cy="397.8" r="3" fill="#E45756"/>
<circle cx="239.8" cy="416.2" r="3" fill="#E45756"/>
<circle cx="243.4" cy="385.6" r="3" fill="#E45756"/>
<circle cx="247.0" cy="403.3" r="3" fill="#E45756"/>
<circle cx="250.6" cy="404.4" r="3" fill="#E45756"/>
<circle cx="254.1" cy="397.3" r="3" fill="#E45756"/>
<circle cx="257.7" cy="370.5" r="3" fill="#E45756"/>
<circle cx="261.3" cy="418.0" r="3" fill="#E45756"/>
<circle cx="264.8" cy="400.0" r="3" fill="#E45756"/>
<circle cx="268.4" cy="392.8" r="3" fill="#E45756"/>
<circle cx="272.0" cy="389.5" r="3" fill="#E45756"/>
<circle cx="275.5" cy="392.6" r="3" fill="#E45756"/>
<circle cx="279.1" cy="429.3" r="3" fill="#E45756"/>
<circle cx="282.7" cy="426.6" r="3" fill="#E45756"/>
<circle cx="286.2" cy="430.1" r="3" fill="#E45756"/>
<circle cx="289.8" cy="402.1" r="3" fill="#E45756"/>
<circle cx="293.4" cy="410.1" r="3" fill="#E45756"/>
<circle cx="296.9" cy="405.0" r="3" fill="#E45756"/>
<circle cx="300.5" cy="405.9" r="3" fill="#E45756"/>
<circle cx="304.1" cy="415.7" r="3" fill="#E45756"/>
<circle cx="307.6" cy="408.6" r="3" fill="#E45756"/>
<circle cx="311.2" cy="432.5" r="3" fill="#E45756"/>
<circle cx="314.8" cy="413.8" r="3" fill="#E45756"/>
<circle cx="318.3" cy="394.0" r="3" fill="#E45756"/>
<circle cx="321.9" cy="421.6" r="3" fill="#E45756"/>
<circle cx="325.5" cy="425.0" r="3" fill="#E45756"/>
<circle cx="329.0" cy="390.8" r="3" fill="#E45756"/>
<circle cx="332.6" cy="433.4" r="3" fill="#E45756"/>
<circle cx="336.2" cy="385.7" r="3" fill="#E45756"/>
<circle cx="339.7" cy="419.6" r="3" fill="#E45756"/>
<circle cx="343.3" cy="393.9" r="3" fill="#E45756"/>
<circle cx="346.9" cy="412.9" r="3" fill="#E45756"/>
<circle cx="350.5" cy="394.0" r="3" fill="#E45756"/>
<circle cx="354.0" cy="419.0" r="3" fill="#E45756"/>
<circle cx="357.6" cy="426.4" r="3" fill="#E45756"/>
<circle cx="361.2" cy="436.6" r="3" fill="#E45756"/>
<circle cx="364.7" cy="404.2" r="3" fill="#E45756"/>
<circle cx="368.3" cy="423.6" r="3" fill="#E45756"/>
<circle cx="371.9" cy="435.2" r="3" fill="#E45756"/>
<line x1="820" y1="145" x2="845" y2="145" stroke="#E45756" stroke-width="3"/>
<text x="855" y="150" font-size="14" font-family="Arial" fill="#333333">Base_Model_3</text>
<polyline points="90.0,184.2 93.6,242.4 97.1,281.1 100.7,266.9 104.3,293.6 107.8,313.7 111.4,332.9 115.0,318.9 118.5,322.5 122.1,366.5 125.7,336.9 129.2,316.7 132.8,332.5 136.4,371.3 139.9,373.5 143.5,333.3 147.1,366.4 150.7,390.5 154.2,364.7 157.8,398.0 161.4,353.7 164.9,353.9 168.5,353.1 172.1,387.5 175.6,353.0 179.2,372.5 182.8,370.8 186.3,399.7 189.9,360.6 193.5,362.0 197.0,416.6 200.6,388.4 204.2,407.1 207.7,381.1 211.3,375.6 214.9,373.6 218.4,375.6 222.0,399.2 225.6,397.7 229.1,375.8 232.7,375.1 236.3,402.0 239.8,386.9 243.4,374.8 247.0,386.1 250.6,398.0 254.1,398.1 257.7,382.2 261.3,394.2 264.8,422.2 268.4,390.9 272.0,409.2 275.5,417.1 279.1,378.4 282.7,413.1 286.2,370.9 289.8,403.1 293.4,394.3 296.9,400.7 300.5,418.7 304.1,375.6 307.6,423.2 311.2,379.9 314.8,410.7 318.3,410.3 321.9,395.9 325.5,403.8 329.0,433.4 332.6,398.6 336.2,404.8 339.7,400.8 343.3,420.8 346.9,408.1 350.5,438.5 354.0,427.4 357.6,408.9 361.2,445.0 364.7,441.7 368.3,408.3 371.9,384.4" fill="none" stroke="#72B7B2" stroke-width="2.5" opacity="0.85"/>
<circle cx="90.0" cy="184.2" r="3" fill="#72B7B2"/>
<circle cx="93.6" cy="242.4" r="3" fill="#72B7B2"/>
<circle cx="97.1" cy="281.1" r="3" fill="#72B7B2"/>
<circle cx="100.7" cy="266.9" r="3" fill="#72B7B2"/>
<circle cx="104.3" cy="293.6" r="3" fill="#72B7B2"/>
<circle cx="107.8" cy="313.7" r="3" fill="#72B7B2"/>
<circle cx="111.4" cy="332.9" r="3" fill="#72B7B2"/>
<circle cx="115.0" cy="318.9" r="3" fill="#72B7B2"/>
<circle cx="118.5" cy="322.5" r="3" fill="#72B7B2"/>
<circle cx="122.1" cy="366.5" r="3" fill="#72B7B2"/>
<circle cx="125.7" cy="336.9" r="3" fill="#72B7B2"/>
<circle cx="129.2" cy="316.7" r="3" fill="#72B7B2"/>
<circle cx="132.8" cy="332.5" r="3" fill="#72B7B2"/>
<circle cx="136.4" cy="371.3" r="3" fill="#72B7B2"/>
<circle cx="139.9" cy="373.5" r="3" fill="#72B7B2"/>
<circle cx="143.5" cy="333.3" r="3" fill="#72B7B2"/>
<circle cx="147.1" cy="366.4" r="3" fill="#72B7B2"/>
<circle cx="150.7" cy="390.5" r="3" fill="#72B7B2"/>
<circle cx="154.2" cy="364.7" r="3" fill="#72B7B2"/>
<circle cx="157.8" cy="398.0" r="3" fill="#72B7B2"/>
<circle cx="161.4" cy="353.7" r="3" fill="#72B7B2"/>
<circle cx="164.9" cy="353.9" r="3" fill="#72B7B2"/>
<circle cx="168.5" cy="353.1" r="3" fill="#72B7B2"/>
<circle cx="172.1" cy="387.5" r="3" fill="#72B7B2"/>
<circle cx="175.6" cy="353.0" r="3" fill="#72B7B2"/>
<circle cx="179.2" cy="372.5" r="3" fill="#72B7B2"/>
<circle cx="182.8" cy="370.8" r="3" fill="#72B7B2"/>
<circle cx="186.3" cy="399.7" r="3" fill="#72B7B2"/>
<circle cx="189.9" cy="360.6" r="3" fill="#72B7B2"/>
<circle cx="193.5" cy="362.0" r="3" fill="#72B7B2"/>
<circle cx="197.0" cy="416.6" r="3" fill="#72B7B2"/>
<circle cx="200.6" cy="388.4" r="3" fill="#72B7B2"/>
<circle cx="204.2" cy="407.1" r="3" fill="#72B7B2"/>
<circle cx="207.7" cy="381.1" r="3" fill="#72B7B2"/>
<circle cx="211.3" cy="375.6" r="3" fill="#72B7B2"/>
<circle cx="214.9" cy="373.6" r="3" fill="#72B7B2"/>
<circle cx="218.4" cy="375.6" r="3" fill="#72B7B2"/>
<circle cx="222.0" cy="399.2" r="3" fill="#72B7B2"/>
<circle cx="225.6" cy="397.7" r="3" fill="#72B7B2"/>
<circle cx="229.1" cy="375.8" r="3" fill="#72B7B2"/>
<circle cx="232.7" cy="375.1" r="3" fill="#72B7B2"/>
<circle cx="236.3" cy="402.0" r="3" fill="#72B7B2"/>
<circle cx="239.8" cy="386.9" r="3" fill="#72B7B2"/>
<circle cx="243.4" cy="374.8" r="3" fill="#72B7B2"/>
<circle cx="247.0" cy="386.1" r="3" fill="#72B7B2"/>
<circle cx="250.6" cy="398.0" r="3" fill="#72B7B2"/>
<circle cx="254.1" cy="398.1" r="3" fill="#72B7B2"/>
<circle cx="257.7" cy="382.2" r="3" fill="#72B7B2"/>
<circle cx="261.3" cy="394.2" r="3" fill="#72B7B2"/>
<circle cx="264.8" cy="422.2" r="3" fill="#72B7B2"/>
<circle cx="268.4" cy="390.9" r="3" fill="#72B7B2"/>
<circle cx="272.0" cy="409.2" r="3" fill="#72B7B2"/>
<circle cx="275.5" cy="417.1" r="3" fill="#72B7B2"/>
<circle cx="279.1" cy="378.4" r="3" fill="#72B7B2"/>
<circle cx="282.7" cy="413.1" r="3" fill="#72B7B2"/>
<circle cx="286.2" cy="370.9" r="3" fill="#72B7B2"/>
<circle cx="289.8" cy="403.1" r="3" fill="#72B7B2"/>
<circle cx="293.4" cy="394.3" r="3" fill="#72B7B2"/>
<circle cx="296.9" cy="400.7" r="3" fill="#72B7B2"/>
<circle cx="300.5" cy="418.7" r="3" fill="#72B7B2"/>
<circle cx="304.1" cy="375.6" r="3" fill="#72B7B2"/>
<circle cx="307.6" cy="423.2" r="3" fill="#72B7B2"/>
<circle cx="311.2" cy="379.9" r="3" fill="#72B7B2"/>
<circle cx="314.8" cy="410.7" r="3" fill="#72B7B2"/>
<circle cx="318.3" cy="410.3" r="3" fill="#72B7B2"/>
<circle cx="321.9" cy="395.9" r="3" fill="#72B7B2"/>
<circle cx="325.5" cy="403.8" r="3" fill="#72B7B2"/>
<circle cx="329.0" cy="433.4" r="3" fill="#72B7B2"/>
<circle cx="332.6" cy="398.6" r="3" fill="#72B7B2"/>
<circle cx="336.2" cy="404.8" r="3" fill="#72B7B2"/>
<circle cx="339.7" cy="400.8" r="3" fill="#72B7B2"/>
<circle cx="343.3" cy="420.8" r="3" fill="#72B7B2"/>
<circle cx="346.9" cy="408.1" r="3" fill="#72B7B2"/>
<circle cx="350.5" cy="438.5" r="3" fill="#72B7B2"/>
<circle cx="354.0" cy="427.4" r="3" fill="#72B7B2"/>
<circle cx="357.6" cy="408.9" r="3" fill="#72B7B2"/>
<circle cx="361.2" cy="445.0" r="3" fill="#72B7B2"/>
<circle cx="364.7" cy="441.7" r="3" fill="#72B7B2"/>
<circle cx="368.3" cy="408.3" r="3" fill="#72B7B2"/>
<circle cx="371.9" cy="384.4" r="3" fill="#72B7B2"/>
<line x1="820" y1="175" x2="845" y2="175" stroke="#72B7B2" stroke-width="3"/>
<text x="855" y="180" font-size="14" font-family="Arial" fill="#333333">Base_Model_4</text>
<polyline points="90.0,70.0 93.6,216.2 97.1,224.1 100.7,264.8 104.3,277.9 107.8,304.2 111.4,332.1 115.0,324.4 118.5,336.5 122.1,332.0 125.7,345.1 129.2,374.9 132.8,350.0 136.4,333.4 139.9,389.8 143.5,362.9 147.1,336.1 150.7,363.1 154.2,362.9 157.8,358.1 161.4,353.1 164.9,430.0 168.5,344.9 172.1,423.3 175.6,369.6 179.2,360.4 182.8,372.5 186.3,358.2 189.9,385.4 193.5,396.8 197.0,392.8 200.6,354.0 204.2,412.3 207.7,394.3 211.3,366.8 214.9,380.9 218.4,373.4 222.0,346.3 225.6,356.7 229.1,362.6 232.7,402.3 236.3,396.3 239.8,381.3 243.4,393.4 247.0,392.3 250.6,390.6 254.1,393.0 257.7,380.1 261.3,387.1 264.8,364.5 268.4,380.0 272.0,399.0 275.5,395.4 279.1,404.0 282.7,397.8 286.2,398.4 289.8,392.3 293.4,406.7 296.9,380.3 300.5,423.1 304.1,409.3 307.6,384.4 311.2,394.4 314.8,402.2 318.3,400.6 321.9,425.3 325.5,405.0 329.0,423.1 332.6,395.9 336.2,414.9 339.7,427.5 343.3,444.7 346.9,401.4 350.5,417.6 354.0,423.6 357.6,386.7 361.2,413.0 364.7,447.2 368.3,425.8 371.9,416.3" fill="none" stroke="#54A24B" stroke-width="2.5" opacity="0.85"/>
<circle cx="90.0" cy="70.0" r="3" fill="#54A24B"/>
<circle cx="93.6" cy="216.2" r="3" fill="#54A24B"/>
<circle cx="97.1" cy="224.1" r="3" fill="#54A24B"/>
<circle cx="100.7" cy="264.8" r="3" fill="#54A24B"/>
<circle cx="104.3" cy="277.9" r="3" fill="#54A24B"/>
<circle cx="107.8" cy="304.2" r="3" fill="#54A24B"/>
<circle cx="111.4" cy="332.1" r="3" fill="#54A24B"/>
<circle cx="115.0" cy="324.4" r="3" fill="#54A24B"/>
<circle cx="118.5" cy="336.5" r="3" fill="#54A24B"/>
<circle cx="122.1" cy="332.0" r="3" fill="#54A24B"/>
<circle cx="125.7" cy="345.1" r="3" fill="#54A24B"/>
<circle cx="129.2" cy="374.9" r="3" fill="#54A24B"/>
<circle cx="132.8" cy="350.0" r="3" fill="#54A24B"/>
<circle cx="136.4" cy="333.4" r="3" fill="#54A24B"/>
<circle cx="139.9" cy="389.8" r="3" fill="#54A24B"/>
<circle cx="143.5" cy="362.9" r="3" fill="#54A24B"/>
<circle cx="147.1" cy="336.1" r="3" fill="#54A24B"/>
<circle cx="150.7" cy="363.1" r="3" fill="#54A24B"/>
<circle cx="154.2" cy="362.9" r="3" fill="#54A24B"/>
<circle cx="157.8" cy="358.1" r="3" fill="#54A24B"/>
<circle cx="161.4" cy="353.1" r="3" fill="#54A24B"/>
<circle cx="164.9" cy="430.0" r="3" fill="#54A24B"/>
<circle cx="168.5" cy="344.9" r="3" fill="#54A24B"/>
<circle cx="172.1" cy="423.3" r="3" fill="#54A24B"/>
<circle cx="175.6" cy="369.6" r="3" fill="#54A24B"/>
<circle cx="179.2" cy="360.4" r="3" fill="#54A24B"/>
<circle cx="182.8" cy="372.5" r="3" fill="#54A24B"/>
<circle cx="186.3" cy="358.2" r="3" fill="#54A24B"/>
<circle cx="189.9" cy="385.4" r="3" fill="#54A24B"/>
<circle cx="193.5" cy="396.8" r="3" fill="#54A24B"/>
<circle cx="197.0" cy="392.8" r="3" fill="#54A24B"/>
<circle cx="200.6" cy="354.0" r="3" fill="#54A24B"/>
<circle cx="204.2" cy="412.3" r="3" fill="#54A24B"/>
<circle cx="207.7" cy="394.3" r="3" fill="#54A24B"/>
<circle cx="211.3" cy="366.8" r="3" fill="#54A24B"/>
<circle cx="214.9" cy="380.9" r="3" fill="#54A24B"/>
<circle cx="218.4" cy="373.4" r="3" fill="#54A24B"/>
<circle cx="222.0" cy="346.3" r="3" fill="#54A24B"/>
<circle cx="225.6" cy="356.7" r="3" fill="#54A24B"/>
<circle cx="229.1" cy="362.6" r="3" fill="#54A24B"/>
<circle cx="232.7" cy="402.3" r="3" fill="#54A24B"/>
<circle cx="236.3" cy="396.3" r="3" fill="#54A24B"/>
<circle cx="239.8" cy="381.3" r="3" fill="#54A24B"/>
<circle cx="243.4" cy="393.4" r="3" fill="#54A24B"/>
<circle cx="247.0" cy="392.3" r="3" fill="#54A24B"/>
<circle cx="250.6" cy="390.6" r="3" fill="#54A24B"/>
<circle cx="254.1" cy="393.0" r="3" fill="#54A24B"/>
<circle cx="257.7" cy="380.1" r="3" fill="#54A24B"/>
<circle cx="261.3" cy="387.1" r="3" fill="#54A24B"/>
<circle cx="264.8" cy="364.5" r="3" fill="#54A24B"/>
<circle cx="268.4" cy="380.0" r="3" fill="#54A24B"/>
<circle cx="272.0" cy="399.0" r="3" fill="#54A24B"/>
<circle cx="275.5" cy="395.4" r="3" fill="#54A24B"/>
<circle cx="279.1" cy="404.0" r="3" fill="#54A24B"/>
<circle cx="282.7" cy="397.8" r="3" fill="#54A24B"/>
<circle cx="286.2" cy="398.4" r="3" fill="#54A24B"/>
<circle cx="289.8" cy="392.3" r="3" fill="#54A24B"/>
<circle cx="293.4" cy="406.7" r="3" fill="#54A24B"/>
<circle cx="296.9" cy="380.3" r="3" fill="#54A24B"/>
<circle cx="300.5" cy="423.1" r="3" fill="#54A24B"/>
<circle cx="304.1" cy="409.3" r="3" fill="#54A24B"/>
<circle cx="307.6" cy="384.4" r="3" fill="#54A24B"/>
<circle cx="311.2" cy="394.4" r="3" fill="#54A24B"/>
<circle cx="314.8" cy="402.2" r="3" fill="#54A24B"/>
<circle cx="318.3" cy="400.6" r="3" fill="#54A24B"/>
<circle cx="321.9" cy="425.3" r="3" fill="#54A24B"/>
<circle cx="325.5" cy="405.0" r="3" fill="#54A24B"/>
<circle cx="329.0" cy="423.1" r="3" fill="#54A24B"/>
<circle cx="332.6" cy="395.9" r="3" fill="#54A24B"/>
<circle cx="336.2" cy="414.9" r="3" fill="#54A24B"/>
<circle cx="339.7" cy="427.5" r="3" fill="#54A24B"/>
<circle cx="343.3" cy="444.7" r="3" fill="#54A24B"/>
<circle cx="346.9" cy="401.4" r="3" fill="#54A24B"/>
<circle cx="350.5" cy="417.6" r="3" fill="#54A24B"/>
<circle cx="354.0" cy="423.6" r="3" fill="#54A24B"/>
<circle cx="357.6" cy="386.7" r="3" fill="#54A24B"/>
<circle cx="361.2" cy="413.0" r="3" fill="#54A24B"/>
<circle cx="364.7" cy="447.2" r="3" fill="#54A24B"/>
<circle cx="368.3" cy="425.8" r="3" fill="#54A24B"/>
<circle cx="371.9" cy="416.3" r="3" fill="#54A24B"/>
<line x1="820" y1="205" x2="845" y2="205" stroke="#54A24B" stroke-width="3"/>
<text x="855" y="210" font-size="14" font-family="Arial" fill="#333333">Base_Model_5</text>
</svg>